<?xml version="1.0" encoding="UTF-8"?>
<!DOCTYPE svg PUBLIC "-//W3C//DTD SVG 1.1//EN" "http://www.w3.org/Graphics/SVG/1.1/DTD/svg11.dtd">
<!-- Creator: CorelDRAW 2020 (64 Bit) -->
<svg xmlns="http://www.w3.org/2000/svg" xml:space="preserve" width="1.955mm" height="1.955mm" version="1.1" style="shape-rendering:geometricPrecision; text-rendering:geometricPrecision; image-rendering:optimizeQuality; fill-rule:evenodd; clip-rule:evenodd"
viewBox="0 0 3.81 3.81"
 xmlns:xlink="http://www.w3.org/1999/xlink"
 xmlns:xodm="http://www.corel.com/coreldraw/odm/2003">
 <defs>
  <style type="text/css">
   <![CDATA[
    .fil2 {fill:none}
    .fil0 {fill:#FEFEFE}
    .fil1 {fill:#BDBFC1}
   ]]>
  </style>
   <clipPath id="id0">
    <path d="M1.9 0c1.05,0 1.9,0.85 1.9,1.9 0,1.05 -0.85,1.9 -1.9,1.9 -1.05,0 -1.9,-0.85 -1.9,-1.9 0,-1.05 0.85,-1.9 1.9,-1.9z"/>
   </clipPath>
    <clipPath id="id1">
     <path d="M1.9 0c1.05,0 1.9,0.85 1.9,1.9 0,1.05 -0.85,1.9 -1.9,1.9 -1.05,0 -1.9,-0.85 -1.9,-1.9 0,-1.05 0.85,-1.9 1.9,-1.9z"/>
    </clipPath>
    <clipPath id="id2">
     <path d="M1.9 0c1.05,0 1.9,0.85 1.9,1.9 0,1.05 -0.85,1.9 -1.9,1.9 -1.05,0 -1.9,-0.85 -1.9,-1.9 0,-1.05 0.85,-1.9 1.9,-1.9z"/>
    </clipPath>
 </defs>
 <g id="Camada_x0020_1">
  <metadata id="CorelCorpID_0Corel-Layer"/>
  <g>
  </g>
  <g style="clip-path:url(#id0)">
   <g>
    <g id="_1860439895328">
     <rect class="fil0" x="0.23" y="-0.12" width="0.52" height="0.52"/>
     <rect class="fil0" x="1.26" y="-0.12" width="0.52" height="0.52"/>
     <rect class="fil0" x="2.29" y="-0.12" width="0.52" height="0.52"/>
     <rect class="fil0" x="3.32" y="-0.12" width="0.52" height="0.52"/>
     <g>
      <rect class="fil1" x="-0.29" y="-0.12" width="0.52" height="0.52"/>
      <rect class="fil1" x="0.74" y="-0.12" width="0.52" height="0.52"/>
      <rect class="fil1" x="1.77" y="-0.12" width="0.52" height="0.52"/>
      <rect class="fil1" x="2.8" y="-0.12" width="0.52" height="0.52"/>
      <rect class="fil1" x="3.83" y="-0.12" width="0.52" height="0.52"/>
     </g>
     <rect class="fil0" x="-0.29" y="0.4" width="0.52" height="0.52"/>
     <rect class="fil0" x="0.74" y="0.4" width="0.52" height="0.52"/>
     <rect class="fil0" x="1.77" y="0.4" width="0.52" height="0.52"/>
     <rect class="fil0" x="2.8" y="0.4" width="0.52" height="0.52"/>
     <g>
      <rect class="fil1" x="-0.8" y="0.4" width="0.52" height="0.52"/>
      <rect class="fil1" x="0.23" y="0.4" width="0.52" height="0.52"/>
      <rect class="fil1" x="1.26" y="0.4" width="0.52" height="0.52"/>
      <rect class="fil1" x="2.29" y="0.4" width="0.52" height="0.52"/>
      <rect class="fil1" x="3.32" y="0.4" width="0.52" height="0.52"/>
     </g>
     <rect class="fil0" x="0.23" y="0.89" width="0.52" height="0.52"/>
     <rect class="fil0" x="1.26" y="0.89" width="0.52" height="0.52"/>
     <rect class="fil0" x="2.29" y="0.89" width="0.52" height="0.52"/>
     <rect class="fil0" x="3.32" y="0.89" width="0.52" height="0.52"/>
     <g>
      <rect class="fil1" x="-0.29" y="0.89" width="0.52" height="0.52"/>
      <rect class="fil1" x="0.74" y="0.89" width="0.52" height="0.52"/>
      <rect class="fil1" x="1.77" y="0.89" width="0.52" height="0.52"/>
      <rect class="fil1" x="2.8" y="0.89" width="0.52" height="0.52"/>
      <rect class="fil1" x="3.83" y="0.89" width="0.52" height="0.52"/>
     </g>
     <rect class="fil0" x="-0.29" y="1.4" width="0.52" height="0.52"/>
     <rect class="fil0" x="0.74" y="1.4" width="0.52" height="0.52"/>
     <rect class="fil0" x="1.77" y="1.4" width="0.52" height="0.52"/>
     <rect class="fil0" x="2.8" y="1.4" width="0.52" height="0.52"/>
     <g>
      <rect class="fil1" x="-0.8" y="1.4" width="0.52" height="0.52"/>
      <rect class="fil1" x="0.23" y="1.4" width="0.52" height="0.52"/>
      <rect class="fil1" x="1.26" y="1.4" width="0.52" height="0.52"/>
      <rect class="fil1" x="2.29" y="1.4" width="0.52" height="0.52"/>
      <rect class="fil1" x="3.32" y="1.4" width="0.52" height="0.52"/>
     </g>
     <rect class="fil0" x="0.23" y="1.9" width="0.52" height="0.52"/>
     <rect class="fil0" x="1.26" y="1.9" width="0.52" height="0.52"/>
     <rect class="fil0" x="2.29" y="1.9" width="0.52" height="0.52"/>
     <rect class="fil0" x="3.32" y="1.9" width="0.52" height="0.52"/>
     <g>
      <rect class="fil1" x="-0.29" y="1.9" width="0.52" height="0.52"/>
      <rect class="fil1" x="0.74" y="1.9" width="0.52" height="0.52"/>
      <rect class="fil1" x="1.77" y="1.9" width="0.52" height="0.52"/>
      <rect class="fil1" x="2.8" y="1.9" width="0.52" height="0.52"/>
      <rect class="fil1" x="3.83" y="1.9" width="0.52" height="0.52"/>
     </g>
     <rect class="fil0" x="-0.29" y="2.41" width="0.52" height="0.52"/>
     <rect class="fil0" x="0.74" y="2.41" width="0.52" height="0.52"/>
     <rect class="fil0" x="1.77" y="2.41" width="0.52" height="0.52"/>
     <rect class="fil0" x="2.8" y="2.41" width="0.52" height="0.52"/>
     <g>
      <rect class="fil1" x="-0.8" y="2.41" width="0.52" height="0.52"/>
      <rect class="fil1" x="0.23" y="2.41" width="0.52" height="0.52"/>
      <rect class="fil1" x="1.26" y="2.41" width="0.52" height="0.52"/>
      <rect class="fil1" x="2.29" y="2.41" width="0.52" height="0.52"/>
      <rect class="fil1" x="3.32" y="2.41" width="0.52" height="0.52"/>
     </g>
     <rect class="fil0" x="0.23" y="2.9" width="0.52" height="0.52"/>
     <rect class="fil0" x="1.26" y="2.9" width="0.52" height="0.52"/>
     <rect class="fil0" x="2.29" y="2.9" width="0.52" height="0.52"/>
     <rect class="fil0" x="3.32" y="2.9" width="0.52" height="0.52"/>
     <g>
      <rect class="fil1" x="-0.29" y="2.9" width="0.52" height="0.52"/>
      <rect class="fil1" x="0.74" y="2.9" width="0.52" height="0.52"/>
      <rect class="fil1" x="1.77" y="2.9" width="0.52" height="0.52"/>
      <rect class="fil1" x="2.8" y="2.9" width="0.52" height="0.52"/>
      <rect class="fil1" x="3.83" y="2.9" width="0.52" height="0.52"/>
     </g>
     <rect class="fil0" x="-0.29" y="3.42" width="0.52" height="0.52"/>
     <rect class="fil0" x="0.74" y="3.42" width="0.52" height="0.52"/>
     <rect class="fil0" x="1.77" y="3.42" width="0.52" height="0.52"/>
     <rect class="fil0" x="2.8" y="3.42" width="0.52" height="0.52"/>
     <g>
      <rect class="fil1" x="-0.8" y="3.42" width="0.52" height="0.52"/>
      <rect class="fil1" x="0.23" y="3.42" width="0.52" height="0.52"/>
      <rect class="fil1" x="1.26" y="3.42" width="0.52" height="0.52"/>
      <rect class="fil1" x="2.29" y="3.42" width="0.52" height="0.52"/>
      <rect class="fil1" x="3.32" y="3.42" width="0.52" height="0.52"/>
     </g>
    </g>
   </g>
   <g style="clip-path:url(#id1)">
    <image x="-1.42" y="-1.57" width="6.83" height="6.83" xlink:href="angulo3_Images\angulo3_ImgID1.png"/>
   </g>
   <g style="clip-path:url(#id2)">
   </g>
  </g>
  <path class="fil2" d="M1.9 0c1.05,0 1.9,0.85 1.9,1.9 0,1.05 -0.85,1.9 -1.9,1.9 -1.05,0 -1.9,-0.85 -1.9,-1.9 0,-1.05 0.85,-1.9 1.9,-1.9z"/>
 </g>
</svg>
