<?xml version="1.0" encoding="UTF-8"?>
<!DOCTYPE svg PUBLIC "-//W3C//DTD SVG 1.1//EN" "http://www.w3.org/Graphics/SVG/1.1/DTD/svg11.dtd">
<!-- Creator: CorelDRAW 2020 (64 Bit) -->
<svg xmlns="http://www.w3.org/2000/svg" xml:space="preserve" width="1.9548mm" height="1.9548mm" version="1.1" style="shape-rendering:geometricPrecision; text-rendering:geometricPrecision; image-rendering:optimizeQuality; fill-rule:evenodd; clip-rule:evenodd"
viewBox="0 0 3.98 3.98"
 xmlns:xlink="http://www.w3.org/1999/xlink"
 xmlns:xodm="http://www.corel.com/coreldraw/odm/2003">
 <defs>
  <style type="text/css">
   <![CDATA[
    .fil3 {fill:none}
    .fil0 {fill:#FEFEFE}
    .fil1 {fill:#BDBFC1}
    .fil2 {fill:#96989A}
   ]]>
  </style>
   <clipPath id="id0">
    <path d="M1.99 3.98c1.1,0 1.99,-0.89 1.99,-1.99 0,-1.1 -0.89,-1.99 -1.99,-1.99 -1.1,0 -1.99,0.89 -1.99,1.99 0,1.1 0.89,1.99 1.99,1.99z"/>
   </clipPath>
     <mask id="id1">
  <linearGradient id="id2" gradientUnits="userSpaceOnUse" x1="1.74" y1="3.32" x2="1.74" y2="0.35">
   <stop offset="0" style="stop-opacity:1; stop-color:white"/>
   <stop offset="1" style="stop-opacity:0; stop-color:white"/>
  </linearGradient>
      <rect style="fill:url(#id2)" x="-1.58" y="-0.51" width="6.9" height="5.28"/>
     </mask>
 </defs>
 <g id="Camada_x0020_1">
  <metadata id="CorelCorpID_0Corel-Layer"/>
  <g>
  </g>
  <g style="clip-path:url(#id0)">
   <g>
    <g id="_1860151846896">
     <rect class="fil0" x="0.24" y="3.57" width="0.54" height="0.54"/>
     <rect class="fil0" x="1.32" y="3.57" width="0.54" height="0.54"/>
     <rect class="fil0" x="2.39" y="3.57" width="0.54" height="0.54"/>
     <rect class="fil0" x="3.47" y="3.57" width="0.54" height="0.54"/>
     <g>
      <rect class="fil1" x="-0.3" y="3.57" width="0.54" height="0.54"/>
      <rect class="fil1" x="0.78" y="3.57" width="0.54" height="0.54"/>
      <rect class="fil1" x="1.85" y="3.57" width="0.54" height="0.54"/>
      <rect class="fil1" x="2.93" y="3.57" width="0.54" height="0.54"/>
      <rect class="fil1" x="4.01" y="3.57" width="0.54" height="0.54"/>
     </g>
     <rect class="fil0" x="-0.3" y="3.03" width="0.54" height="0.54"/>
     <rect class="fil0" x="0.78" y="3.03" width="0.54" height="0.54"/>
     <rect class="fil0" x="1.85" y="3.03" width="0.54" height="0.54"/>
     <rect class="fil0" x="2.93" y="3.03" width="0.54" height="0.54"/>
     <g>
      <rect class="fil1" x="-0.84" y="3.03" width="0.54" height="0.54"/>
      <rect class="fil1" x="0.24" y="3.03" width="0.54" height="0.54"/>
      <rect class="fil1" x="1.32" y="3.03" width="0.54" height="0.54"/>
      <rect class="fil1" x="2.39" y="3.03" width="0.54" height="0.54"/>
      <rect class="fil1" x="3.47" y="3.03" width="0.54" height="0.54"/>
     </g>
     <rect class="fil0" x="0.24" y="2.51" width="0.54" height="0.54"/>
     <rect class="fil0" x="1.32" y="2.51" width="0.54" height="0.54"/>
     <rect class="fil0" x="2.39" y="2.51" width="0.54" height="0.54"/>
     <rect class="fil0" x="3.47" y="2.51" width="0.54" height="0.54"/>
     <g>
      <rect class="fil1" x="-0.3" y="2.51" width="0.54" height="0.54"/>
      <rect class="fil1" x="0.78" y="2.51" width="0.54" height="0.54"/>
      <rect class="fil1" x="1.85" y="2.51" width="0.54" height="0.54"/>
      <rect class="fil1" x="2.93" y="2.51" width="0.54" height="0.54"/>
      <rect class="fil1" x="4.01" y="2.51" width="0.54" height="0.54"/>
     </g>
     <rect class="fil0" x="-0.3" y="1.98" width="0.54" height="0.54"/>
     <rect class="fil0" x="0.78" y="1.98" width="0.54" height="0.54"/>
     <rect class="fil0" x="1.85" y="1.98" width="0.54" height="0.54"/>
     <rect class="fil0" x="2.93" y="1.98" width="0.54" height="0.54"/>
     <g>
      <rect class="fil1" x="-0.84" y="1.98" width="0.54" height="0.54"/>
      <rect class="fil1" x="0.24" y="1.98" width="0.54" height="0.54"/>
      <rect class="fil1" x="1.32" y="1.98" width="0.54" height="0.54"/>
      <rect class="fil1" x="2.39" y="1.98" width="0.54" height="0.54"/>
      <rect class="fil1" x="3.47" y="1.98" width="0.54" height="0.54"/>
     </g>
     <rect class="fil0" x="0.24" y="1.46" width="0.54" height="0.54"/>
     <rect class="fil0" x="1.32" y="1.46" width="0.54" height="0.54"/>
     <rect class="fil0" x="2.39" y="1.46" width="0.54" height="0.54"/>
     <rect class="fil0" x="3.47" y="1.46" width="0.54" height="0.54"/>
     <g>
      <rect class="fil1" x="-0.3" y="1.46" width="0.54" height="0.54"/>
      <rect class="fil1" x="0.78" y="1.46" width="0.54" height="0.54"/>
      <rect class="fil1" x="1.85" y="1.46" width="0.54" height="0.54"/>
      <rect class="fil1" x="2.93" y="1.46" width="0.54" height="0.54"/>
      <rect class="fil1" x="4.01" y="1.46" width="0.54" height="0.54"/>
     </g>
     <rect class="fil0" x="-0.3" y="0.92" width="0.54" height="0.54"/>
     <rect class="fil0" x="0.78" y="0.92" width="0.54" height="0.54"/>
     <rect class="fil0" x="1.85" y="0.92" width="0.54" height="0.54"/>
     <rect class="fil0" x="2.93" y="0.92" width="0.54" height="0.54"/>
     <g>
      <rect class="fil1" x="-0.84" y="0.92" width="0.54" height="0.54"/>
      <rect class="fil1" x="0.24" y="0.92" width="0.54" height="0.54"/>
      <rect class="fil1" x="1.32" y="0.92" width="0.54" height="0.54"/>
      <rect class="fil1" x="2.39" y="0.92" width="0.54" height="0.54"/>
      <rect class="fil1" x="3.47" y="0.92" width="0.54" height="0.54"/>
     </g>
     <rect class="fil0" x="0.24" y="0.41" width="0.54" height="0.54"/>
     <rect class="fil0" x="1.32" y="0.41" width="0.54" height="0.54"/>
     <rect class="fil0" x="2.39" y="0.41" width="0.54" height="0.54"/>
     <rect class="fil0" x="3.47" y="0.41" width="0.54" height="0.54"/>
     <g>
      <rect class="fil1" x="-0.3" y="0.41" width="0.54" height="0.54"/>
      <rect class="fil1" x="0.78" y="0.41" width="0.54" height="0.54"/>
      <rect class="fil1" x="1.85" y="0.41" width="0.54" height="0.54"/>
      <rect class="fil1" x="2.93" y="0.41" width="0.54" height="0.54"/>
      <rect class="fil1" x="4.01" y="0.41" width="0.54" height="0.54"/>
     </g>
     <rect class="fil0" x="-0.3" y="-0.13" width="0.54" height="0.54"/>
     <rect class="fil0" x="0.78" y="-0.13" width="0.54" height="0.54"/>
     <rect class="fil0" x="1.85" y="-0.13" width="0.54" height="0.54"/>
     <rect class="fil0" x="2.93" y="-0.13" width="0.54" height="0.54"/>
     <g>
      <rect class="fil1" x="-0.84" y="-0.13" width="0.54" height="0.54"/>
      <rect class="fil1" x="0.24" y="-0.13" width="0.54" height="0.54"/>
      <rect class="fil1" x="1.32" y="-0.13" width="0.54" height="0.54"/>
      <rect class="fil1" x="2.39" y="-0.13" width="0.54" height="0.54"/>
      <rect class="fil1" x="3.47" y="-0.13" width="0.54" height="0.54"/>
     </g>
    </g>
    <polygon class="fil2" style="mask:url(#id1)" points="-1.38,4.56 5.12,4.56 5.12,-0.31 -1.38,-0.31 "/>
   </g>
  </g>
  <path class="fil3" d="M1.99 3.98c1.1,0 1.99,-0.89 1.99,-1.99 0,-1.1 -0.89,-1.99 -1.99,-1.99 -1.1,0 -1.99,0.89 -1.99,1.99 0,1.1 0.89,1.99 1.99,1.99z"/>
 </g>
</svg>
