<?xml version="1.0" encoding="UTF-8"?>
<!DOCTYPE svg PUBLIC "-//W3C//DTD SVG 1.1//EN" "http://www.w3.org/Graphics/SVG/1.1/DTD/svg11.dtd">
<!-- Creator: CorelDRAW 2020 (64 Bit) -->
<svg xmlns="http://www.w3.org/2000/svg" xml:space="preserve" width="1.9548mm" height="1.9548mm" version="1.1" style="shape-rendering:geometricPrecision; text-rendering:geometricPrecision; image-rendering:optimizeQuality; fill-rule:evenodd; clip-rule:evenodd"
viewBox="0 0 4.18 4.18"
 xmlns:xlink="http://www.w3.org/1999/xlink"
 xmlns:xodm="http://www.corel.com/coreldraw/odm/2003">
 <defs>
  <style type="text/css">
   <![CDATA[
    .fil3 {fill:none}
    .fil0 {fill:#FEFEFE}
    .fil1 {fill:#BDBFC1}
    .fil2 {fill:#96989A}
   ]]>
  </style>
   <clipPath id="id0">
    <path d="M-0 2.09c0,-1.15 0.94,-2.09 2.09,-2.09 1.15,0 2.09,0.94 2.09,2.09 0,1.15 -0.94,2.09 -2.09,2.09 -1.15,0 -2.09,-0.94 -2.09,-2.09z"/>
   </clipPath>
     <mask id="id1">
  <linearGradient id="id2" gradientUnits="userSpaceOnUse" x1="0.7" y1="2.36" x2="3.81" y2="2.36">
   <stop offset="0" style="stop-opacity:1; stop-color:white"/>
   <stop offset="1" style="stop-opacity:0; stop-color:white"/>
  </linearGradient>
      <rect style="fill:url(#id2)" x="-0.82" y="-1.41" width="5.54" height="7.24"/>
     </mask>
 </defs>
 <g id="Camada_x0020_1">
  <metadata id="CorelCorpID_0Corel-Layer"/>
  <g>
  </g>
  <g style="clip-path:url(#id0)">
   <g>
    <g id="_1860443285856">
     <rect class="fil0" transform="matrix(-2.9441E-15 0.111163 0.111163 2.9441E-15 -0.131734 3.36584)" width="5.09" height="5.09"/>
     <rect class="fil0" transform="matrix(-2.9441E-15 0.111163 0.111163 2.9441E-15 -0.131734 2.23431)" width="5.09" height="5.09"/>
     <rect class="fil0" transform="matrix(-2.9441E-15 0.111163 0.111163 2.9441E-15 -0.131734 1.10278)" width="5.09" height="5.09"/>
     <rect class="fil0" transform="matrix(-2.9441E-15 0.111163 0.111163 2.9441E-15 -0.131734 -0.0287426)" width="5.09" height="5.09"/>
     <g>
      <rect class="fil1" transform="matrix(2.9441E-15 -0.111163 0.111163 2.9441E-15 -0.131734 4.49739)" width="5.09" height="5.09"/>
      <rect class="fil1" transform="matrix(2.9441E-15 -0.111163 0.111163 2.9441E-15 -0.131734 3.36586)" width="5.09" height="5.09"/>
      <rect class="fil1" transform="matrix(2.9441E-15 -0.111163 0.111163 2.9441E-15 -0.131734 2.23434)" width="5.09" height="5.09"/>
      <rect class="fil1" transform="matrix(2.9441E-15 -0.111163 0.111163 2.9441E-15 -0.131734 1.10281)" width="5.09" height="5.09"/>
      <rect class="fil1" transform="matrix(2.9441E-15 -0.111163 0.111163 2.9441E-15 -0.131734 -0.0287188)" width="5.09" height="5.09"/>
     </g>
     <rect class="fil0" transform="matrix(-2.9441E-15 0.111163 0.111163 2.9441E-15 0.434053 3.93163)" width="5.09" height="5.09"/>
     <rect class="fil0" transform="matrix(-2.9441E-15 0.111163 0.111163 2.9441E-15 0.434053 2.8001)" width="5.09" height="5.09"/>
     <rect class="fil0" transform="matrix(-2.9441E-15 0.111163 0.111163 2.9441E-15 0.434053 1.66857)" width="5.09" height="5.09"/>
     <rect class="fil0" transform="matrix(-2.9441E-15 0.111163 0.111163 2.9441E-15 0.434053 0.537045)" width="5.09" height="5.09"/>
     <g>
      <rect class="fil1" transform="matrix(2.9441E-15 -0.111163 0.111163 2.9441E-15 0.434053 5.06318)" width="5.09" height="5.09"/>
      <rect class="fil1" transform="matrix(2.9441E-15 -0.111163 0.111163 2.9441E-15 0.434053 3.93165)" width="5.09" height="5.09"/>
      <rect class="fil1" transform="matrix(2.9441E-15 -0.111163 0.111163 2.9441E-15 0.434053 2.80012)" width="5.09" height="5.09"/>
      <rect class="fil1" transform="matrix(2.9441E-15 -0.111163 0.111163 2.9441E-15 0.434053 1.6686)" width="5.09" height="5.09"/>
      <rect class="fil1" transform="matrix(2.9441E-15 -0.111163 0.111163 2.9441E-15 0.434053 0.537069)" width="5.09" height="5.09"/>
     </g>
     <rect class="fil0" transform="matrix(-2.9441E-15 0.111163 0.111163 2.9441E-15 0.975284 3.36584)" width="5.09" height="5.09"/>
     <rect class="fil0" transform="matrix(-2.9441E-15 0.111163 0.111163 2.9441E-15 0.975284 2.23431)" width="5.09" height="5.09"/>
     <rect class="fil0" transform="matrix(-2.9441E-15 0.111163 0.111163 2.9441E-15 0.975284 1.10278)" width="5.09" height="5.09"/>
     <rect class="fil0" transform="matrix(-2.9441E-15 0.111163 0.111163 2.9441E-15 0.975284 -0.0287426)" width="5.09" height="5.09"/>
     <g>
      <rect class="fil1" transform="matrix(2.9441E-15 -0.111163 0.111163 2.9441E-15 0.975284 4.49739)" width="5.09" height="5.09"/>
      <rect class="fil1" transform="matrix(2.9441E-15 -0.111163 0.111163 2.9441E-15 0.975284 3.36586)" width="5.09" height="5.09"/>
      <rect class="fil1" transform="matrix(2.9441E-15 -0.111163 0.111163 2.9441E-15 0.975284 2.23434)" width="5.09" height="5.09"/>
      <rect class="fil1" transform="matrix(2.9441E-15 -0.111163 0.111163 2.9441E-15 0.975284 1.10281)" width="5.09" height="5.09"/>
      <rect class="fil1" transform="matrix(2.9441E-15 -0.111163 0.111163 2.9441E-15 0.975284 -0.0287188)" width="5.09" height="5.09"/>
     </g>
     <rect class="fil0" transform="matrix(-2.9441E-15 0.111163 0.111163 2.9441E-15 1.54107 3.93163)" width="5.09" height="5.09"/>
     <rect class="fil0" transform="matrix(-2.9441E-15 0.111163 0.111163 2.9441E-15 1.54107 2.8001)" width="5.09" height="5.09"/>
     <rect class="fil0" transform="matrix(-2.9441E-15 0.111163 0.111163 2.9441E-15 1.54107 1.66857)" width="5.09" height="5.09"/>
     <rect class="fil0" transform="matrix(-2.9441E-15 0.111163 0.111163 2.9441E-15 1.54107 0.537045)" width="5.09" height="5.09"/>
     <g>
      <rect class="fil1" transform="matrix(2.9441E-15 -0.111163 0.111163 2.9441E-15 1.54107 5.06318)" width="5.09" height="5.09"/>
      <rect class="fil1" transform="matrix(2.9441E-15 -0.111163 0.111163 2.9441E-15 1.54107 3.93165)" width="5.09" height="5.09"/>
      <rect class="fil1" transform="matrix(2.9441E-15 -0.111163 0.111163 2.9441E-15 1.54107 2.80012)" width="5.09" height="5.09"/>
      <rect class="fil1" transform="matrix(2.9441E-15 -0.111163 0.111163 2.9441E-15 1.54107 1.6686)" width="5.09" height="5.09"/>
      <rect class="fil1" transform="matrix(2.9441E-15 -0.111163 0.111163 2.9441E-15 1.54107 0.537069)" width="5.09" height="5.09"/>
     </g>
     <rect class="fil0" transform="matrix(-2.9441E-15 0.111163 0.111163 2.9441E-15 2.0823 3.36584)" width="5.09" height="5.09"/>
     <rect class="fil0" transform="matrix(-2.9441E-15 0.111163 0.111163 2.9441E-15 2.0823 2.23431)" width="5.09" height="5.09"/>
     <rect class="fil0" transform="matrix(-2.9441E-15 0.111163 0.111163 2.9441E-15 2.0823 1.10278)" width="5.09" height="5.09"/>
     <rect class="fil0" transform="matrix(-2.9441E-15 0.111163 0.111163 2.9441E-15 2.0823 -0.0287426)" width="5.09" height="5.09"/>
     <g>
      <rect class="fil1" transform="matrix(2.9441E-15 -0.111163 0.111163 2.9441E-15 2.0823 4.49739)" width="5.09" height="5.09"/>
      <rect class="fil1" transform="matrix(2.9441E-15 -0.111163 0.111163 2.9441E-15 2.0823 3.36586)" width="5.09" height="5.09"/>
      <rect class="fil1" transform="matrix(2.9441E-15 -0.111163 0.111163 2.9441E-15 2.0823 2.23434)" width="5.09" height="5.09"/>
      <rect class="fil1" transform="matrix(2.9441E-15 -0.111163 0.111163 2.9441E-15 2.0823 1.10281)" width="5.09" height="5.09"/>
      <rect class="fil1" transform="matrix(2.9441E-15 -0.111163 0.111163 2.9441E-15 2.0823 -0.0287188)" width="5.09" height="5.09"/>
     </g>
     <rect class="fil0" transform="matrix(-2.9441E-15 0.111163 0.111163 2.9441E-15 2.64809 3.93163)" width="5.09" height="5.09"/>
     <rect class="fil0" transform="matrix(-2.9441E-15 0.111163 0.111163 2.9441E-15 2.64809 2.8001)" width="5.09" height="5.09"/>
     <rect class="fil0" transform="matrix(-2.9441E-15 0.111163 0.111163 2.9441E-15 2.64809 1.66857)" width="5.09" height="5.09"/>
     <rect class="fil0" transform="matrix(-2.9441E-15 0.111163 0.111163 2.9441E-15 2.64809 0.537045)" width="5.09" height="5.09"/>
     <g>
      <rect class="fil1" transform="matrix(2.9441E-15 -0.111163 0.111163 2.9441E-15 2.64809 5.06318)" width="5.09" height="5.09"/>
      <rect class="fil1" transform="matrix(2.9441E-15 -0.111163 0.111163 2.9441E-15 2.64809 3.93165)" width="5.09" height="5.09"/>
      <rect class="fil1" transform="matrix(2.9441E-15 -0.111163 0.111163 2.9441E-15 2.64809 2.80012)" width="5.09" height="5.09"/>
      <rect class="fil1" transform="matrix(2.9441E-15 -0.111163 0.111163 2.9441E-15 2.64809 1.6686)" width="5.09" height="5.09"/>
      <rect class="fil1" transform="matrix(2.9441E-15 -0.111163 0.111163 2.9441E-15 2.64809 0.537069)" width="5.09" height="5.09"/>
     </g>
     <rect class="fil0" transform="matrix(-2.9441E-15 0.111163 0.111163 2.9441E-15 3.18932 3.36584)" width="5.09" height="5.09"/>
     <rect class="fil0" transform="matrix(-2.9441E-15 0.111163 0.111163 2.9441E-15 3.18932 2.23431)" width="5.09" height="5.09"/>
     <rect class="fil0" transform="matrix(-2.9441E-15 0.111163 0.111163 2.9441E-15 3.18932 1.10278)" width="5.09" height="5.09"/>
     <rect class="fil0" transform="matrix(-2.9441E-15 0.111163 0.111163 2.9441E-15 3.18932 -0.0287426)" width="5.09" height="5.09"/>
     <g>
      <rect class="fil1" transform="matrix(2.9441E-15 -0.111163 0.111163 2.9441E-15 3.18932 4.49739)" width="5.09" height="5.09"/>
      <rect class="fil1" transform="matrix(2.9441E-15 -0.111163 0.111163 2.9441E-15 3.18932 3.36586)" width="5.09" height="5.09"/>
      <rect class="fil1" transform="matrix(2.9441E-15 -0.111163 0.111163 2.9441E-15 3.18932 2.23434)" width="5.09" height="5.09"/>
      <rect class="fil1" transform="matrix(2.9441E-15 -0.111163 0.111163 2.9441E-15 3.18932 1.10281)" width="5.09" height="5.09"/>
      <rect class="fil1" transform="matrix(2.9441E-15 -0.111163 0.111163 2.9441E-15 3.18932 -0.0287188)" width="5.09" height="5.09"/>
     </g>
     <rect class="fil0" transform="matrix(-2.9441E-15 0.111163 0.111163 2.9441E-15 3.75511 3.93163)" width="5.09" height="5.09"/>
     <rect class="fil0" transform="matrix(-2.9441E-15 0.111163 0.111163 2.9441E-15 3.75511 2.8001)" width="5.09" height="5.09"/>
     <rect class="fil0" transform="matrix(-2.9441E-15 0.111163 0.111163 2.9441E-15 3.75511 1.66857)" width="5.09" height="5.09"/>
     <rect class="fil0" transform="matrix(-2.9441E-15 0.111163 0.111163 2.9441E-15 3.75511 0.537045)" width="5.09" height="5.09"/>
     <g>
      <rect class="fil1" transform="matrix(2.9441E-15 -0.111163 0.111163 2.9441E-15 3.75511 5.06318)" width="5.09" height="5.09"/>
      <rect class="fil1" transform="matrix(2.9441E-15 -0.111163 0.111163 2.9441E-15 3.75511 3.93165)" width="5.09" height="5.09"/>
      <rect class="fil1" transform="matrix(2.9441E-15 -0.111163 0.111163 2.9441E-15 3.75511 2.80012)" width="5.09" height="5.09"/>
      <rect class="fil1" transform="matrix(2.9441E-15 -0.111163 0.111163 2.9441E-15 3.75511 1.6686)" width="5.09" height="5.09"/>
      <rect class="fil1" transform="matrix(2.9441E-15 -0.111163 0.111163 2.9441E-15 3.75511 0.537069)" width="5.09" height="5.09"/>
     </g>
    </g>
    <polygon class="fil2" style="mask:url(#id1)" points="-0.61,5.62 -0.61,-1.19 4.5,-1.19 4.5,5.62 "/>
   </g>
  </g>
  <path class="fil3" d="M-0 2.09c0,-1.15 0.94,-2.09 2.09,-2.09 1.15,0 2.09,0.94 2.09,2.09 0,1.15 -0.94,2.09 -2.09,2.09 -1.15,0 -2.09,-0.94 -2.09,-2.09z"/>
 </g>
</svg>
