<?xml version="1.0" encoding="UTF-8"?>
<!DOCTYPE svg PUBLIC "-//W3C//DTD SVG 1.1//EN" "http://www.w3.org/Graphics/SVG/1.1/DTD/svg11.dtd">
<!-- Creator: CorelDRAW 2020 (64 Bit) -->
<svg xmlns="http://www.w3.org/2000/svg" xml:space="preserve" width="1.9548mm" height="1.9548mm" version="1.1" style="shape-rendering:geometricPrecision; text-rendering:geometricPrecision; image-rendering:optimizeQuality; fill-rule:evenodd; clip-rule:evenodd"
viewBox="0 0 3.98 3.98"
 xmlns:xlink="http://www.w3.org/1999/xlink"
 xmlns:xodm="http://www.corel.com/coreldraw/odm/2003">
 <defs>
  <style type="text/css">
   <![CDATA[
    .fil3 {fill:none}
    .fil0 {fill:#FEFEFE}
    .fil1 {fill:#BDBFC1}
    .fil2 {fill:#96989A}
   ]]>
  </style>
   <clipPath id="id0">
    <path d="M3.98 1.99c0,1.1 -0.89,1.99 -1.99,1.99 -1.1,0 -1.99,-0.89 -1.99,-1.99 0,-1.1 0.89,-1.99 1.99,-1.99 1.1,0 1.99,0.89 1.99,1.99z"/>
   </clipPath>
     <mask id="id1">
  <linearGradient id="id2" gradientUnits="userSpaceOnUse" x1="3.32" y1="1.74" x2="0.35" y2="1.74">
   <stop offset="0" style="stop-opacity:1; stop-color:white"/>
   <stop offset="1" style="stop-opacity:0; stop-color:white"/>
  </linearGradient>
      <rect style="fill:url(#id2)" x="-0.51" y="-1.58" width="5.28" height="6.9"/>
     </mask>
 </defs>
 <g id="Camada_x0020_1">
  <metadata id="CorelCorpID_0Corel-Layer"/>
  <g>
  </g>
  <g style="clip-path:url(#id0)">
   <g>
    <g id="_1860437087440">
     <rect class="fil0" transform="matrix(-2.9441E-15 -0.111163 -0.111163 2.9441E-15 4.10848 0.776095)" width="4.85" height="4.85"/>
     <rect class="fil0" transform="matrix(-2.9441E-15 -0.111163 -0.111163 2.9441E-15 4.10848 1.85418)" width="4.85" height="4.85"/>
     <rect class="fil0" transform="matrix(-2.9441E-15 -0.111163 -0.111163 2.9441E-15 4.10848 2.93227)" width="4.85" height="4.85"/>
     <rect class="fil0" transform="matrix(-2.9441E-15 -0.111163 -0.111163 2.9441E-15 4.10848 4.01035)" width="4.85" height="4.85"/>
     <g>
      <rect class="fil1" transform="matrix(2.9441E-15 0.111163 -0.111163 2.9441E-15 4.10848 -0.302013)" width="4.85" height="4.85"/>
      <rect class="fil1" transform="matrix(2.9441E-15 0.111163 -0.111163 2.9441E-15 4.10848 0.776072)" width="4.85" height="4.85"/>
      <rect class="fil1" transform="matrix(2.9441E-15 0.111163 -0.111163 2.9441E-15 4.10848 1.85416)" width="4.85" height="4.85"/>
      <rect class="fil1" transform="matrix(2.9441E-15 0.111163 -0.111163 2.9441E-15 4.10848 2.93224)" width="4.85" height="4.85"/>
      <rect class="fil1" transform="matrix(2.9441E-15 0.111163 -0.111163 2.9441E-15 4.10848 4.01033)" width="4.85" height="4.85"/>
     </g>
     <rect class="fil0" transform="matrix(-2.9441E-15 -0.111163 -0.111163 2.9441E-15 3.56941 0.23703)" width="4.85" height="4.85"/>
     <rect class="fil0" transform="matrix(-2.9441E-15 -0.111163 -0.111163 2.9441E-15 3.56941 1.31512)" width="4.85" height="4.85"/>
     <rect class="fil0" transform="matrix(-2.9441E-15 -0.111163 -0.111163 2.9441E-15 3.56941 2.3932)" width="4.85" height="4.85"/>
     <rect class="fil0" transform="matrix(-2.9441E-15 -0.111163 -0.111163 2.9441E-15 3.56941 3.47129)" width="4.85" height="4.85"/>
     <g>
      <rect class="fil1" transform="matrix(2.9441E-15 0.111163 -0.111163 2.9441E-15 3.56941 -0.841079)" width="4.85" height="4.85"/>
      <rect class="fil1" transform="matrix(2.9441E-15 0.111163 -0.111163 2.9441E-15 3.56941 0.237007)" width="4.85" height="4.85"/>
      <rect class="fil1" transform="matrix(2.9441E-15 0.111163 -0.111163 2.9441E-15 3.56941 1.31509)" width="4.85" height="4.85"/>
      <rect class="fil1" transform="matrix(2.9441E-15 0.111163 -0.111163 2.9441E-15 3.56941 2.39318)" width="4.85" height="4.85"/>
      <rect class="fil1" transform="matrix(2.9441E-15 0.111163 -0.111163 2.9441E-15 3.56941 3.47126)" width="4.85" height="4.85"/>
     </g>
     <rect class="fil0" transform="matrix(-2.9441E-15 -0.111163 -0.111163 2.9441E-15 3.05375 0.776095)" width="4.85" height="4.85"/>
     <rect class="fil0" transform="matrix(-2.9441E-15 -0.111163 -0.111163 2.9441E-15 3.05375 1.85418)" width="4.85" height="4.85"/>
     <rect class="fil0" transform="matrix(-2.9441E-15 -0.111163 -0.111163 2.9441E-15 3.05375 2.93227)" width="4.85" height="4.85"/>
     <rect class="fil0" transform="matrix(-2.9441E-15 -0.111163 -0.111163 2.9441E-15 3.05375 4.01035)" width="4.85" height="4.85"/>
     <g>
      <rect class="fil1" transform="matrix(2.9441E-15 0.111163 -0.111163 2.9441E-15 3.05375 -0.302013)" width="4.85" height="4.85"/>
      <rect class="fil1" transform="matrix(2.9441E-15 0.111163 -0.111163 2.9441E-15 3.05375 0.776072)" width="4.85" height="4.85"/>
      <rect class="fil1" transform="matrix(2.9441E-15 0.111163 -0.111163 2.9441E-15 3.05375 1.85416)" width="4.85" height="4.85"/>
      <rect class="fil1" transform="matrix(2.9441E-15 0.111163 -0.111163 2.9441E-15 3.05375 2.93224)" width="4.85" height="4.85"/>
      <rect class="fil1" transform="matrix(2.9441E-15 0.111163 -0.111163 2.9441E-15 3.05375 4.01033)" width="4.85" height="4.85"/>
     </g>
     <rect class="fil0" transform="matrix(-2.9441E-15 -0.111163 -0.111163 2.9441E-15 2.51468 0.23703)" width="4.85" height="4.85"/>
     <rect class="fil0" transform="matrix(-2.9441E-15 -0.111163 -0.111163 2.9441E-15 2.51468 1.31512)" width="4.85" height="4.85"/>
     <rect class="fil0" transform="matrix(-2.9441E-15 -0.111163 -0.111163 2.9441E-15 2.51468 2.3932)" width="4.85" height="4.85"/>
     <rect class="fil0" transform="matrix(-2.9441E-15 -0.111163 -0.111163 2.9441E-15 2.51468 3.47129)" width="4.85" height="4.85"/>
     <g>
      <rect class="fil1" transform="matrix(2.9441E-15 0.111163 -0.111163 2.9441E-15 2.51468 -0.841079)" width="4.85" height="4.85"/>
      <rect class="fil1" transform="matrix(2.9441E-15 0.111163 -0.111163 2.9441E-15 2.51468 0.237007)" width="4.85" height="4.85"/>
      <rect class="fil1" transform="matrix(2.9441E-15 0.111163 -0.111163 2.9441E-15 2.51468 1.31509)" width="4.85" height="4.85"/>
      <rect class="fil1" transform="matrix(2.9441E-15 0.111163 -0.111163 2.9441E-15 2.51468 2.39318)" width="4.85" height="4.85"/>
      <rect class="fil1" transform="matrix(2.9441E-15 0.111163 -0.111163 2.9441E-15 2.51468 3.47126)" width="4.85" height="4.85"/>
     </g>
     <rect class="fil0" transform="matrix(-2.9441E-15 -0.111163 -0.111163 2.9441E-15 1.99901 0.776095)" width="4.85" height="4.85"/>
     <rect class="fil0" transform="matrix(-2.9441E-15 -0.111163 -0.111163 2.9441E-15 1.99901 1.85418)" width="4.85" height="4.85"/>
     <rect class="fil0" transform="matrix(-2.9441E-15 -0.111163 -0.111163 2.9441E-15 1.99901 2.93227)" width="4.85" height="4.85"/>
     <rect class="fil0" transform="matrix(-2.9441E-15 -0.111163 -0.111163 2.9441E-15 1.99901 4.01035)" width="4.85" height="4.85"/>
     <g>
      <rect class="fil1" transform="matrix(2.9441E-15 0.111163 -0.111163 2.9441E-15 1.99901 -0.302013)" width="4.85" height="4.85"/>
      <rect class="fil1" transform="matrix(2.9441E-15 0.111163 -0.111163 2.9441E-15 1.99901 0.776072)" width="4.85" height="4.85"/>
      <rect class="fil1" transform="matrix(2.9441E-15 0.111163 -0.111163 2.9441E-15 1.99901 1.85416)" width="4.85" height="4.85"/>
      <rect class="fil1" transform="matrix(2.9441E-15 0.111163 -0.111163 2.9441E-15 1.99901 2.93224)" width="4.85" height="4.85"/>
      <rect class="fil1" transform="matrix(2.9441E-15 0.111163 -0.111163 2.9441E-15 1.99901 4.01033)" width="4.85" height="4.85"/>
     </g>
     <rect class="fil0" transform="matrix(-2.9441E-15 -0.111163 -0.111163 2.9441E-15 1.45995 0.23703)" width="4.85" height="4.85"/>
     <rect class="fil0" transform="matrix(-2.9441E-15 -0.111163 -0.111163 2.9441E-15 1.45995 1.31512)" width="4.85" height="4.85"/>
     <rect class="fil0" transform="matrix(-2.9441E-15 -0.111163 -0.111163 2.9441E-15 1.45995 2.3932)" width="4.85" height="4.85"/>
     <rect class="fil0" transform="matrix(-2.9441E-15 -0.111163 -0.111163 2.9441E-15 1.45995 3.47129)" width="4.85" height="4.85"/>
     <g>
      <rect class="fil1" transform="matrix(2.9441E-15 0.111163 -0.111163 2.9441E-15 1.45995 -0.841079)" width="4.85" height="4.85"/>
      <rect class="fil1" transform="matrix(2.9441E-15 0.111163 -0.111163 2.9441E-15 1.45995 0.237007)" width="4.85" height="4.85"/>
      <rect class="fil1" transform="matrix(2.9441E-15 0.111163 -0.111163 2.9441E-15 1.45995 1.31509)" width="4.85" height="4.85"/>
      <rect class="fil1" transform="matrix(2.9441E-15 0.111163 -0.111163 2.9441E-15 1.45995 2.39318)" width="4.85" height="4.85"/>
      <rect class="fil1" transform="matrix(2.9441E-15 0.111163 -0.111163 2.9441E-15 1.45995 3.47126)" width="4.85" height="4.85"/>
     </g>
     <rect class="fil0" transform="matrix(-2.9441E-15 -0.111163 -0.111163 2.9441E-15 0.944278 0.776095)" width="4.85" height="4.85"/>
     <rect class="fil0" transform="matrix(-2.9441E-15 -0.111163 -0.111163 2.9441E-15 0.944278 1.85418)" width="4.85" height="4.85"/>
     <rect class="fil0" transform="matrix(-2.9441E-15 -0.111163 -0.111163 2.9441E-15 0.944278 2.93227)" width="4.85" height="4.85"/>
     <rect class="fil0" transform="matrix(-2.9441E-15 -0.111163 -0.111163 2.9441E-15 0.944278 4.01035)" width="4.85" height="4.85"/>
     <g>
      <rect class="fil1" transform="matrix(2.9441E-15 0.111163 -0.111163 2.9441E-15 0.944278 -0.302013)" width="4.85" height="4.85"/>
      <rect class="fil1" transform="matrix(2.9441E-15 0.111163 -0.111163 2.9441E-15 0.944278 0.776072)" width="4.85" height="4.85"/>
      <rect class="fil1" transform="matrix(2.9441E-15 0.111163 -0.111163 2.9441E-15 0.944278 1.85416)" width="4.85" height="4.85"/>
      <rect class="fil1" transform="matrix(2.9441E-15 0.111163 -0.111163 2.9441E-15 0.944278 2.93224)" width="4.85" height="4.85"/>
      <rect class="fil1" transform="matrix(2.9441E-15 0.111163 -0.111163 2.9441E-15 0.944278 4.01033)" width="4.85" height="4.85"/>
     </g>
     <rect class="fil0" transform="matrix(-2.9441E-15 -0.111163 -0.111163 2.9441E-15 0.405213 0.23703)" width="4.85" height="4.85"/>
     <rect class="fil0" transform="matrix(-2.9441E-15 -0.111163 -0.111163 2.9441E-15 0.405213 1.31512)" width="4.85" height="4.85"/>
     <rect class="fil0" transform="matrix(-2.9441E-15 -0.111163 -0.111163 2.9441E-15 0.405213 2.3932)" width="4.85" height="4.85"/>
     <rect class="fil0" transform="matrix(-2.9441E-15 -0.111163 -0.111163 2.9441E-15 0.405213 3.47129)" width="4.85" height="4.85"/>
     <g>
      <rect class="fil1" transform="matrix(2.9441E-15 0.111163 -0.111163 2.9441E-15 0.405213 -0.841079)" width="4.85" height="4.85"/>
      <rect class="fil1" transform="matrix(2.9441E-15 0.111163 -0.111163 2.9441E-15 0.405213 0.237007)" width="4.85" height="4.85"/>
      <rect class="fil1" transform="matrix(2.9441E-15 0.111163 -0.111163 2.9441E-15 0.405213 1.31509)" width="4.85" height="4.85"/>
      <rect class="fil1" transform="matrix(2.9441E-15 0.111163 -0.111163 2.9441E-15 0.405213 2.39318)" width="4.85" height="4.85"/>
      <rect class="fil1" transform="matrix(2.9441E-15 0.111163 -0.111163 2.9441E-15 0.405213 3.47126)" width="4.85" height="4.85"/>
     </g>
    </g>
    <polygon class="fil2" style="mask:url(#id1)" points="4.56,-1.38 4.56,5.12 -0.31,5.12 -0.31,-1.38 "/>
   </g>
  </g>
  <path class="fil3" d="M3.98 1.99c0,1.1 -0.89,1.99 -1.99,1.99 -1.1,0 -1.99,-0.89 -1.99,-1.99 0,-1.1 0.89,-1.99 1.99,-1.99 1.1,0 1.99,0.89 1.99,1.99z"/>
 </g>
</svg>
