<?xml version="1.0" encoding="UTF-8"?>
<!DOCTYPE svg PUBLIC "-//W3C//DTD SVG 1.1//EN" "http://www.w3.org/Graphics/SVG/1.1/DTD/svg11.dtd">
<!-- Creator: CorelDRAW 2020 (64 Bit) -->
<svg xmlns="http://www.w3.org/2000/svg" xml:space="preserve" width="1.9548mm" height="1.9548mm" version="1.1" style="shape-rendering:geometricPrecision; text-rendering:geometricPrecision; image-rendering:optimizeQuality; fill-rule:evenodd; clip-rule:evenodd"
viewBox="0 0 4.18 4.18"
 xmlns:xlink="http://www.w3.org/1999/xlink"
 xmlns:xodm="http://www.corel.com/coreldraw/odm/2003">
 <defs>
  <style type="text/css">
   <![CDATA[
    .fil3 {fill:none}
    .fil0 {fill:#FEFEFE}
    .fil1 {fill:#BDBFC1}
    .fil2 {fill:#96989A}
   ]]>
  </style>
   <clipPath id="id0">
    <path d="M2.09 0c1.15,0 2.09,0.94 2.09,2.09 0,1.15 -0.94,2.09 -2.09,2.09 -1.15,0 -2.09,-0.94 -2.09,-2.09 0,-1.15 0.94,-2.09 2.09,-2.09z"/>
   </clipPath>
     <mask id="id1">
  <linearGradient id="id2" gradientUnits="userSpaceOnUse" x1="1.82" y1="0.7" x2="1.82" y2="3.81">
   <stop offset="0" style="stop-opacity:1; stop-color:white"/>
   <stop offset="1" style="stop-opacity:0; stop-color:white"/>
  </linearGradient>
      <rect style="fill:url(#id2)" x="-1.66" y="-0.82" width="7.24" height="5.54"/>
     </mask>
 </defs>
 <g id="Camada_x0020_1">
  <metadata id="CorelCorpID_0Corel-Layer"/>
  <g>
  </g>
  <g style="clip-path:url(#id0)">
   <g>
    <g id="_1860443280576">
     <rect class="fil0" x="0.25" y="-0.13" width="0.57" height="0.57"/>
     <rect class="fil0" x="1.38" y="-0.13" width="0.57" height="0.57"/>
     <rect class="fil0" x="2.51" y="-0.13" width="0.57" height="0.57"/>
     <rect class="fil0" x="3.64" y="-0.13" width="0.57" height="0.57"/>
     <g>
      <rect class="fil1" x="-0.32" y="-0.13" width="0.57" height="0.57"/>
      <rect class="fil1" x="0.81" y="-0.13" width="0.57" height="0.57"/>
      <rect class="fil1" x="1.95" y="-0.13" width="0.57" height="0.57"/>
      <rect class="fil1" x="3.08" y="-0.13" width="0.57" height="0.57"/>
      <rect class="fil1" x="4.21" y="-0.13" width="0.57" height="0.57"/>
     </g>
     <rect class="fil0" x="-0.32" y="0.43" width="0.57" height="0.57"/>
     <rect class="fil0" x="0.81" y="0.43" width="0.57" height="0.57"/>
     <rect class="fil0" x="1.95" y="0.43" width="0.57" height="0.57"/>
     <rect class="fil0" x="3.08" y="0.43" width="0.57" height="0.57"/>
     <g>
      <rect class="fil1" x="-0.88" y="0.43" width="0.57" height="0.57"/>
      <rect class="fil1" x="0.25" y="0.43" width="0.57" height="0.57"/>
      <rect class="fil1" x="1.38" y="0.43" width="0.57" height="0.57"/>
      <rect class="fil1" x="2.51" y="0.43" width="0.57" height="0.57"/>
      <rect class="fil1" x="3.64" y="0.43" width="0.57" height="0.57"/>
     </g>
     <rect class="fil0" x="0.25" y="0.98" width="0.57" height="0.57"/>
     <rect class="fil0" x="1.38" y="0.98" width="0.57" height="0.57"/>
     <rect class="fil0" x="2.51" y="0.98" width="0.57" height="0.57"/>
     <rect class="fil0" x="3.64" y="0.98" width="0.57" height="0.57"/>
     <g>
      <rect class="fil1" x="-0.32" y="0.98" width="0.57" height="0.57"/>
      <rect class="fil1" x="0.81" y="0.98" width="0.57" height="0.57"/>
      <rect class="fil1" x="1.95" y="0.98" width="0.57" height="0.57"/>
      <rect class="fil1" x="3.08" y="0.98" width="0.57" height="0.57"/>
      <rect class="fil1" x="4.21" y="0.98" width="0.57" height="0.57"/>
     </g>
     <rect class="fil0" x="-0.32" y="1.54" width="0.57" height="0.57"/>
     <rect class="fil0" x="0.81" y="1.54" width="0.57" height="0.57"/>
     <rect class="fil0" x="1.95" y="1.54" width="0.57" height="0.57"/>
     <rect class="fil0" x="3.08" y="1.54" width="0.57" height="0.57"/>
     <g>
      <rect class="fil1" x="-0.88" y="1.54" width="0.57" height="0.57"/>
      <rect class="fil1" x="0.25" y="1.54" width="0.57" height="0.57"/>
      <rect class="fil1" x="1.38" y="1.54" width="0.57" height="0.57"/>
      <rect class="fil1" x="2.51" y="1.54" width="0.57" height="0.57"/>
      <rect class="fil1" x="3.64" y="1.54" width="0.57" height="0.57"/>
     </g>
     <rect class="fil0" x="0.25" y="2.08" width="0.57" height="0.57"/>
     <rect class="fil0" x="1.38" y="2.08" width="0.57" height="0.57"/>
     <rect class="fil0" x="2.51" y="2.08" width="0.57" height="0.57"/>
     <rect class="fil0" x="3.64" y="2.08" width="0.57" height="0.57"/>
     <g>
      <rect class="fil1" x="-0.32" y="2.08" width="0.57" height="0.57"/>
      <rect class="fil1" x="0.81" y="2.08" width="0.57" height="0.57"/>
      <rect class="fil1" x="1.95" y="2.08" width="0.57" height="0.57"/>
      <rect class="fil1" x="3.08" y="2.08" width="0.57" height="0.57"/>
      <rect class="fil1" x="4.21" y="2.08" width="0.57" height="0.57"/>
     </g>
     <rect class="fil0" x="-0.32" y="2.65" width="0.57" height="0.57"/>
     <rect class="fil0" x="0.81" y="2.65" width="0.57" height="0.57"/>
     <rect class="fil0" x="1.95" y="2.65" width="0.57" height="0.57"/>
     <rect class="fil0" x="3.08" y="2.65" width="0.57" height="0.57"/>
     <g>
      <rect class="fil1" x="-0.88" y="2.65" width="0.57" height="0.57"/>
      <rect class="fil1" x="0.25" y="2.65" width="0.57" height="0.57"/>
      <rect class="fil1" x="1.38" y="2.65" width="0.57" height="0.57"/>
      <rect class="fil1" x="2.51" y="2.65" width="0.57" height="0.57"/>
      <rect class="fil1" x="3.64" y="2.65" width="0.57" height="0.57"/>
     </g>
     <rect class="fil0" x="0.25" y="3.19" width="0.57" height="0.57"/>
     <rect class="fil0" x="1.38" y="3.19" width="0.57" height="0.57"/>
     <rect class="fil0" x="2.51" y="3.19" width="0.57" height="0.57"/>
     <rect class="fil0" x="3.64" y="3.19" width="0.57" height="0.57"/>
     <g>
      <rect class="fil1" x="-0.32" y="3.19" width="0.57" height="0.57"/>
      <rect class="fil1" x="0.81" y="3.19" width="0.57" height="0.57"/>
      <rect class="fil1" x="1.95" y="3.19" width="0.57" height="0.57"/>
      <rect class="fil1" x="3.08" y="3.19" width="0.57" height="0.57"/>
      <rect class="fil1" x="4.21" y="3.19" width="0.57" height="0.57"/>
     </g>
     <rect class="fil0" x="-0.32" y="3.76" width="0.57" height="0.57"/>
     <rect class="fil0" x="0.81" y="3.76" width="0.57" height="0.57"/>
     <rect class="fil0" x="1.95" y="3.76" width="0.57" height="0.57"/>
     <rect class="fil0" x="3.08" y="3.76" width="0.57" height="0.57"/>
     <g>
      <rect class="fil1" x="-0.88" y="3.76" width="0.57" height="0.57"/>
      <rect class="fil1" x="0.25" y="3.76" width="0.57" height="0.57"/>
      <rect class="fil1" x="1.38" y="3.76" width="0.57" height="0.57"/>
      <rect class="fil1" x="2.51" y="3.76" width="0.57" height="0.57"/>
      <rect class="fil1" x="3.64" y="3.76" width="0.57" height="0.57"/>
     </g>
    </g>
    <polygon class="fil2" style="mask:url(#id1)" points="-1.44,-0.61 5.37,-0.61 5.37,4.5 -1.44,4.5 "/>
   </g>
  </g>
  <path class="fil3" d="M2.09 0c1.15,0 2.09,0.94 2.09,2.09 0,1.15 -0.94,2.09 -2.09,2.09 -1.15,0 -2.09,-0.94 -2.09,-2.09 0,-1.15 0.94,-2.09 2.09,-2.09z"/>
 </g>
</svg>
